<?xml version="1.0" encoding="UTF-8" standalone="no"?>
<!DOCTYPE svg PUBLIC "-//W3C//DTD SVG 1.1//EN"
 "http://www.w3.org/Graphics/SVG/1.1/DTD/svg11.dtd">
<!-- Generated by graphviz version 2.47.0 (20210316.0004)
 -->
<!-- Title: dbml Pages: 1 -->
<svg width="1211pt" height="4738pt"
 viewBox="0.00 0.00 1210.73 4737.63" xmlns="http://www.w3.org/2000/svg" xmlns:xlink="http://www.w3.org/1999/xlink">
<g id="graph0" class="graph" transform="scale(1 1) rotate(0) translate(4 4733.63)">
<title>dbml</title>
<!-- users -->
<g id="users" class="node">
<title>users</title>
<ellipse fill="none" stroke="black" stroke-width="0" cx="931.2" cy="-1916.67" rx="271.56" ry="257.27"/>
<polygon fill="#1d71b8" stroke="transparent" points="741.2,-2036.67 741.2,-2096.67 1121.2,-2096.67 1121.2,-2036.67 741.2,-2036.67"/>
<polygon fill="none" stroke="#29235c" points="741.2,-2036.67 741.2,-2096.67 1121.2,-2096.67 1121.2,-2036.67 741.2,-2036.67"/>
<text text-anchor="start" x="829.83" y="-2057.87" font-family="Helvetica,sans-Serif" font-weight="bold" font-size="32.00" fill="#ffffff"> &#160;&#160;&#160;&#160;&#160;&#160;users &#160;&#160;&#160;&#160;&#160;&#160;</text>
<polygon fill="#e7e2dd" stroke="transparent" points="741.2,-1976.67 741.2,-2036.67 1121.2,-2036.67 1121.2,-1976.67 741.2,-1976.67"/>
<polygon fill="none" stroke="#29235c" points="741.2,-1976.67 741.2,-2036.67 1121.2,-2036.67 1121.2,-1976.67 741.2,-1976.67"/>
<text text-anchor="start" x="752.2" y="-1997.87" font-family="Helvetica,sans-Serif" font-weight="bold" font-size="32.00" fill="#29235c">id</text>
<text text-anchor="start" x="777.09" y="-1997.87" font-family="Helvetica,sans-Serif" font-size="32.00" fill="#29235c"> &#160;&#160;&#160;</text>
<text text-anchor="start" x="1049.73" y="-1997.87" font-family="Helvetica,sans-Serif" font-style="italic" font-size="32.00" fill="#29235c">uuid</text>
<polygon fill="#e7e2dd" stroke="transparent" points="741.2,-1916.67 741.2,-1976.67 1121.2,-1976.67 1121.2,-1916.67 741.2,-1916.67"/>
<polygon fill="none" stroke="#29235c" points="741.2,-1916.67 741.2,-1976.67 1121.2,-1976.67 1121.2,-1916.67 741.2,-1916.67"/>
<text text-anchor="start" x="752.2" y="-1936.87" font-family="Helvetica,sans-Serif" font-size="32.00" fill="#29235c">email &#160;&#160;&#160;</text>
<text text-anchor="start" x="1019.53" y="-1937.87" font-family="Helvetica,sans-Serif" font-style="italic" font-size="32.00" fill="#29235c">text</text>
<text text-anchor="start" x="1071.11" y="-1937.87" font-family="Helvetica,sans-Serif" font-size="32.00" fill="#29235c"> </text>
<text text-anchor="start" x="1080" y="-1937.87" font-family="Helvetica,sans-Serif" font-weight="bold" font-size="32.00" fill="#29235c">(!)</text>
<polygon fill="#e7e2dd" stroke="transparent" points="741.2,-1856.67 741.2,-1916.67 1121.2,-1916.67 1121.2,-1856.67 741.2,-1856.67"/>
<polygon fill="none" stroke="#29235c" points="741.2,-1856.67 741.2,-1916.67 1121.2,-1916.67 1121.2,-1856.67 741.2,-1856.67"/>
<text text-anchor="start" x="752.2" y="-1876.87" font-family="Helvetica,sans-Serif" font-size="32.00" fill="#29235c">password_hash &#160;&#160;&#160;</text>
<text text-anchor="start" x="1058.62" y="-1877.87" font-family="Helvetica,sans-Serif" font-style="italic" font-size="32.00" fill="#29235c">text</text>
<polygon fill="#e7e2dd" stroke="transparent" points="741.2,-1796.67 741.2,-1856.67 1121.2,-1856.67 1121.2,-1796.67 741.2,-1796.67"/>
<polygon fill="none" stroke="#29235c" points="741.2,-1796.67 741.2,-1856.67 1121.2,-1856.67 1121.2,-1796.67 741.2,-1796.67"/>
<text text-anchor="start" x="752.2" y="-1816.87" font-family="Helvetica,sans-Serif" font-size="32.00" fill="#29235c">auth_provider &#160;&#160;&#160;</text>
<text text-anchor="start" x="1058.62" y="-1817.87" font-family="Helvetica,sans-Serif" font-style="italic" font-size="32.00" fill="#29235c">text</text>
<polygon fill="#e7e2dd" stroke="transparent" points="741.2,-1736.67 741.2,-1796.67 1121.2,-1796.67 1121.2,-1736.67 741.2,-1736.67"/>
<polygon fill="none" stroke="#29235c" points="741.2,-1736.67 741.2,-1796.67 1121.2,-1796.67 1121.2,-1736.67 741.2,-1736.67"/>
<text text-anchor="start" x="751.83" y="-1756.87" font-family="Helvetica,sans-Serif" font-size="32.00" fill="#29235c">created_at &#160;&#160;&#160;</text>
<text text-anchor="start" x="937.97" y="-1757.87" font-family="Helvetica,sans-Serif" font-style="italic" font-size="32.00" fill="#29235c">timestamptz</text>
<polygon fill="none" stroke="#29235c" stroke-width="2" points="740.2,-1735.67 740.2,-2097.67 1122.2,-2097.67 1122.2,-1735.67 740.2,-1735.67"/>
</g>
<!-- health_profiles -->
<g id="health_profiles" class="node">
<title>health_profiles</title>
<ellipse fill="none" stroke="black" stroke-width="0" cx="311.83" cy="-2534.67" rx="271.56" ry="342.48"/>
<polygon fill="#1d71b8" stroke="transparent" points="121.83,-2714.67 121.83,-2774.67 501.83,-2774.67 501.83,-2714.67 121.83,-2714.67"/>
<polygon fill="none" stroke="#29235c" points="121.83,-2714.67 121.83,-2774.67 501.83,-2774.67 501.83,-2714.67 121.83,-2714.67"/>
<text text-anchor="start" x="145.56" y="-2735.87" font-family="Helvetica,sans-Serif" font-weight="bold" font-size="32.00" fill="#ffffff"> &#160;&#160;&#160;&#160;&#160;&#160;health_profiles &#160;&#160;&#160;&#160;&#160;&#160;</text>
<polygon fill="#e7e2dd" stroke="transparent" points="121.83,-2654.67 121.83,-2714.67 501.83,-2714.67 501.83,-2654.67 121.83,-2654.67"/>
<polygon fill="none" stroke="#29235c" points="121.83,-2654.67 121.83,-2714.67 501.83,-2714.67 501.83,-2654.67 121.83,-2654.67"/>
<text text-anchor="start" x="132.83" y="-2675.87" font-family="Helvetica,sans-Serif" font-weight="bold" font-size="32.00" fill="#29235c">user_id</text>
<text text-anchor="start" x="237.74" y="-2675.87" font-family="Helvetica,sans-Serif" font-size="32.00" fill="#29235c"> &#160;&#160;&#160;</text>
<text text-anchor="start" x="430.37" y="-2675.87" font-family="Helvetica,sans-Serif" font-style="italic" font-size="32.00" fill="#29235c">uuid</text>
<polygon fill="#e7e2dd" stroke="transparent" points="121.83,-2594.67 121.83,-2654.67 501.83,-2654.67 501.83,-2594.67 121.83,-2594.67"/>
<polygon fill="none" stroke="#29235c" points="121.83,-2594.67 121.83,-2654.67 501.83,-2654.67 501.83,-2594.67 121.83,-2594.67"/>
<text text-anchor="start" x="132.83" y="-2614.87" font-family="Helvetica,sans-Serif" font-size="32.00" fill="#29235c">age &#160;&#160;&#160;</text>
<text text-anchor="start" x="457.05" y="-2615.87" font-family="Helvetica,sans-Serif" font-style="italic" font-size="32.00" fill="#29235c">int</text>
<polygon fill="#e7e2dd" stroke="transparent" points="121.83,-2534.67 121.83,-2594.67 501.83,-2594.67 501.83,-2534.67 121.83,-2534.67"/>
<polygon fill="none" stroke="#29235c" points="121.83,-2534.67 121.83,-2594.67 501.83,-2594.67 501.83,-2534.67 121.83,-2534.67"/>
<text text-anchor="start" x="132.83" y="-2554.87" font-family="Helvetica,sans-Serif" font-size="32.00" fill="#29235c">height_cm &#160;&#160;&#160;</text>
<text text-anchor="start" x="457.05" y="-2555.87" font-family="Helvetica,sans-Serif" font-style="italic" font-size="32.00" fill="#29235c">int</text>
<polygon fill="#e7e2dd" stroke="transparent" points="121.83,-2474.67 121.83,-2534.67 501.83,-2534.67 501.83,-2474.67 121.83,-2474.67"/>
<polygon fill="none" stroke="#29235c" points="121.83,-2474.67 121.83,-2534.67 501.83,-2534.67 501.83,-2474.67 121.83,-2474.67"/>
<text text-anchor="start" x="132.83" y="-2494.87" font-family="Helvetica,sans-Serif" font-size="32.00" fill="#29235c">weight_kg &#160;&#160;&#160;</text>
<text text-anchor="start" x="430.37" y="-2495.87" font-family="Helvetica,sans-Serif" font-style="italic" font-size="32.00" fill="#29235c">float</text>
<polygon fill="#e7e2dd" stroke="transparent" points="121.83,-2414.67 121.83,-2474.67 501.83,-2474.67 501.83,-2414.67 121.83,-2414.67"/>
<polygon fill="none" stroke="#29235c" points="121.83,-2414.67 121.83,-2474.67 501.83,-2474.67 501.83,-2414.67 121.83,-2414.67"/>
<text text-anchor="start" x="132.83" y="-2434.87" font-family="Helvetica,sans-Serif" font-size="32.00" fill="#29235c">goal &#160;&#160;&#160;</text>
<text text-anchor="start" x="439.26" y="-2435.87" font-family="Helvetica,sans-Serif" font-style="italic" font-size="32.00" fill="#29235c">text</text>
<polygon fill="#e7e2dd" stroke="transparent" points="121.83,-2354.67 121.83,-2414.67 501.83,-2414.67 501.83,-2354.67 121.83,-2354.67"/>
<polygon fill="none" stroke="#29235c" points="121.83,-2354.67 121.83,-2414.67 501.83,-2414.67 501.83,-2354.67 121.83,-2354.67"/>
<text text-anchor="start" x="132.83" y="-2374.87" font-family="Helvetica,sans-Serif" font-size="32.00" fill="#29235c">activity_level &#160;&#160;&#160;</text>
<text text-anchor="start" x="439.26" y="-2375.87" font-family="Helvetica,sans-Serif" font-style="italic" font-size="32.00" fill="#29235c">text</text>
<polygon fill="#e7e2dd" stroke="transparent" points="121.83,-2294.67 121.83,-2354.67 501.83,-2354.67 501.83,-2294.67 121.83,-2294.67"/>
<polygon fill="none" stroke="#29235c" points="121.83,-2294.67 121.83,-2354.67 501.83,-2354.67 501.83,-2294.67 121.83,-2294.67"/>
<text text-anchor="start" x="132.46" y="-2314.87" font-family="Helvetica,sans-Serif" font-size="32.00" fill="#29235c">created_at &#160;&#160;&#160;</text>
<text text-anchor="start" x="318.61" y="-2315.87" font-family="Helvetica,sans-Serif" font-style="italic" font-size="32.00" fill="#29235c">timestamptz</text>
<polygon fill="none" stroke="#29235c" stroke-width="2" points="120.83,-2293.67 120.83,-2775.67 502.83,-2775.67 502.83,-2293.67 120.83,-2293.67"/>
</g>
<!-- health_profiles&#45;&gt;users -->
<!-- health_profiles&#45;&gt;users -->
<g id="edge2" class="edge">
<title>health_profiles:e&#45;&gt;users:w</title>
<path fill="none" stroke="#29235c" stroke-width="3" d="M502.83,-2684.67C659.04,-2684.67 583.97,-2035.49 730.24,-2007.59"/>
<polygon fill="#29235c" stroke="#29235c" stroke-width="3" points="730.56,-2011.08 740.2,-2006.67 729.92,-2004.11 730.56,-2011.08"/>
<text text-anchor="middle" x="731.3" y="-2016.27" font-family="Helvetica,sans-Serif" font-size="32.00" fill="#29235c">1</text>
<text text-anchor="middle" x="509.06" y="-2694.27" font-family="Helvetica,sans-Serif" font-size="32.00" fill="#29235c">*</text>
</g>
<!-- dietary_constraints -->
<g id="dietary_constraints" class="node">
<title>dietary_constraints</title>
<ellipse fill="none" stroke="black" stroke-width="0" cx="311.83" cy="-1916.67" rx="295.64" ry="257.27"/>
<polygon fill="#1d71b8" stroke="transparent" points="104.83,-2036.67 104.83,-2096.67 518.83,-2096.67 518.83,-2036.67 104.83,-2036.67"/>
<polygon fill="none" stroke="#29235c" points="104.83,-2036.67 104.83,-2096.67 518.83,-2096.67 518.83,-2036.67 104.83,-2036.67"/>
<text text-anchor="start" x="115.34" y="-2057.87" font-family="Helvetica,sans-Serif" font-weight="bold" font-size="32.00" fill="#ffffff"> &#160;&#160;&#160;&#160;&#160;&#160;dietary_constraints &#160;&#160;&#160;&#160;&#160;&#160;</text>
<polygon fill="#e7e2dd" stroke="transparent" points="104.83,-1976.67 104.83,-2036.67 518.83,-2036.67 518.83,-1976.67 104.83,-1976.67"/>
<polygon fill="none" stroke="#29235c" points="104.83,-1976.67 104.83,-2036.67 518.83,-2036.67 518.83,-1976.67 104.83,-1976.67"/>
<text text-anchor="start" x="115.83" y="-1997.87" font-family="Helvetica,sans-Serif" font-weight="bold" font-size="32.00" fill="#29235c">user_id</text>
<text text-anchor="start" x="220.74" y="-1997.87" font-family="Helvetica,sans-Serif" font-size="32.00" fill="#29235c"> &#160;&#160;&#160;</text>
<text text-anchor="start" x="447.37" y="-1997.87" font-family="Helvetica,sans-Serif" font-style="italic" font-size="32.00" fill="#29235c">uuid</text>
<polygon fill="#e7e2dd" stroke="transparent" points="104.83,-1916.67 104.83,-1976.67 518.83,-1976.67 518.83,-1916.67 104.83,-1916.67"/>
<polygon fill="none" stroke="#29235c" points="104.83,-1916.67 104.83,-1976.67 518.83,-1976.67 518.83,-1916.67 104.83,-1916.67"/>
<text text-anchor="start" x="115.83" y="-1936.87" font-family="Helvetica,sans-Serif" font-size="32.00" fill="#29235c">gluten_free &#160;&#160;&#160;</text>
<text text-anchor="start" x="394" y="-1937.87" font-family="Helvetica,sans-Serif" font-style="italic" font-size="32.00" fill="#29235c">boolean</text>
<polygon fill="#e7e2dd" stroke="transparent" points="104.83,-1856.67 104.83,-1916.67 518.83,-1916.67 518.83,-1856.67 104.83,-1856.67"/>
<polygon fill="none" stroke="#29235c" points="104.83,-1856.67 104.83,-1916.67 518.83,-1916.67 518.83,-1856.67 104.83,-1856.67"/>
<text text-anchor="start" x="115.83" y="-1876.87" font-family="Helvetica,sans-Serif" font-size="32.00" fill="#29235c">vegan &#160;&#160;&#160;</text>
<text text-anchor="start" x="394" y="-1877.87" font-family="Helvetica,sans-Serif" font-style="italic" font-size="32.00" fill="#29235c">boolean</text>
<polygon fill="#e7e2dd" stroke="transparent" points="104.83,-1796.67 104.83,-1856.67 518.83,-1856.67 518.83,-1796.67 104.83,-1796.67"/>
<polygon fill="none" stroke="#29235c" points="104.83,-1796.67 104.83,-1856.67 518.83,-1856.67 518.83,-1796.67 104.83,-1796.67"/>
<text text-anchor="start" x="115.83" y="-1816.87" font-family="Helvetica,sans-Serif" font-size="32.00" fill="#29235c">lactose_free &#160;&#160;&#160;</text>
<text text-anchor="start" x="394" y="-1817.87" font-family="Helvetica,sans-Serif" font-style="italic" font-size="32.00" fill="#29235c">boolean</text>
<polygon fill="#e7e2dd" stroke="transparent" points="104.83,-1736.67 104.83,-1796.67 518.83,-1796.67 518.83,-1736.67 104.83,-1736.67"/>
<polygon fill="none" stroke="#29235c" points="104.83,-1736.67 104.83,-1796.67 518.83,-1796.67 518.83,-1736.67 104.83,-1736.67"/>
<text text-anchor="start" x="115.83" y="-1756.87" font-family="Helvetica,sans-Serif" font-size="32.00" fill="#29235c">diabetic_safe &#160;&#160;&#160;</text>
<text text-anchor="start" x="394" y="-1757.87" font-family="Helvetica,sans-Serif" font-style="italic" font-size="32.00" fill="#29235c">boolean</text>
<polygon fill="none" stroke="#29235c" stroke-width="2" points="103.83,-1735.67 103.83,-2097.67 519.83,-2097.67 519.83,-1735.67 103.83,-1735.67"/>
</g>
<!-- dietary_constraints&#45;&gt;users -->
<!-- dietary_constraints&#45;&gt;users -->
<g id="edge4" class="edge">
<title>dietary_constraints:e&#45;&gt;users:w</title>
<path fill="none" stroke="#29235c" stroke-width="3" d="M519.83,-2006.67C614.33,-2006.67 640.45,-2006.67 730.13,-2006.67"/>
<polygon fill="#29235c" stroke="#29235c" stroke-width="3" points="730.2,-2010.17 740.2,-2006.67 730.2,-2003.17 730.2,-2010.17"/>
<text text-anchor="middle" x="749.09" y="-2016.27" font-family="Helvetica,sans-Serif" font-size="32.00" fill="#29235c">1</text>
<text text-anchor="middle" x="526.06" y="-2016.27" font-family="Helvetica,sans-Serif" font-size="32.00" fill="#29235c">*</text>
</g>
<!-- daily_health_logs -->
<g id="daily_health_logs" class="node">
<title>daily_health_logs</title>
<ellipse fill="none" stroke="black" stroke-width="0" cx="311.83" cy="-1214.67" rx="280.94" ry="427.19"/>
<polygon fill="#1d71b8" stroke="transparent" points="115.83,-1454.67 115.83,-1514.67 508.83,-1514.67 508.83,-1454.67 115.83,-1454.67"/>
<polygon fill="none" stroke="#29235c" points="115.83,-1454.67 115.83,-1514.67 508.83,-1514.67 508.83,-1454.67 115.83,-1454.67"/>
<text text-anchor="start" x="126.49" y="-1475.87" font-family="Helvetica,sans-Serif" font-weight="bold" font-size="32.00" fill="#ffffff"> &#160;&#160;&#160;&#160;&#160;&#160;daily_health_logs &#160;&#160;&#160;&#160;&#160;&#160;</text>
<polygon fill="#e7e2dd" stroke="transparent" points="115.83,-1394.67 115.83,-1454.67 508.83,-1454.67 508.83,-1394.67 115.83,-1394.67"/>
<polygon fill="none" stroke="#29235c" points="115.83,-1394.67 115.83,-1454.67 508.83,-1454.67 508.83,-1394.67 115.83,-1394.67"/>
<text text-anchor="start" x="126.83" y="-1415.87" font-family="Helvetica,sans-Serif" font-weight="bold" font-size="32.00" fill="#29235c">user_id</text>
<text text-anchor="start" x="231.74" y="-1415.87" font-family="Helvetica,sans-Serif" font-size="32.00" fill="#29235c"> &#160;&#160;&#160;</text>
<text text-anchor="start" x="437.37" y="-1415.87" font-family="Helvetica,sans-Serif" font-style="italic" font-size="32.00" fill="#29235c">uuid</text>
<polygon fill="#e7e2dd" stroke="transparent" points="115.83,-1334.67 115.83,-1394.67 508.83,-1394.67 508.83,-1334.67 115.83,-1334.67"/>
<polygon fill="none" stroke="#29235c" points="115.83,-1334.67 115.83,-1394.67 508.83,-1394.67 508.83,-1334.67 115.83,-1334.67"/>
<text text-anchor="start" x="126.83" y="-1355.87" font-family="Helvetica,sans-Serif" font-weight="bold" font-size="32.00" fill="#29235c">log_date</text>
<text text-anchor="start" x="249.56" y="-1355.87" font-family="Helvetica,sans-Serif" font-size="32.00" fill="#29235c"> &#160;&#160;&#160;</text>
<text text-anchor="start" x="435.57" y="-1355.87" font-family="Helvetica,sans-Serif" font-style="italic" font-size="32.00" fill="#29235c">date</text>
<polygon fill="#e7e2dd" stroke="transparent" points="115.83,-1274.67 115.83,-1334.67 508.83,-1334.67 508.83,-1274.67 115.83,-1274.67"/>
<polygon fill="none" stroke="#29235c" points="115.83,-1274.67 115.83,-1334.67 508.83,-1334.67 508.83,-1274.67 115.83,-1274.67"/>
<text text-anchor="start" x="126.83" y="-1294.87" font-family="Helvetica,sans-Serif" font-size="32.00" fill="#29235c">steps &#160;&#160;&#160;</text>
<text text-anchor="start" x="464.05" y="-1295.87" font-family="Helvetica,sans-Serif" font-style="italic" font-size="32.00" fill="#29235c">int</text>
<polygon fill="#e7e2dd" stroke="transparent" points="115.83,-1214.67 115.83,-1274.67 508.83,-1274.67 508.83,-1214.67 115.83,-1214.67"/>
<polygon fill="none" stroke="#29235c" points="115.83,-1214.67 115.83,-1274.67 508.83,-1274.67 508.83,-1214.67 115.83,-1214.67"/>
<text text-anchor="start" x="126.83" y="-1234.87" font-family="Helvetica,sans-Serif" font-size="32.00" fill="#29235c">sleep_hours &#160;&#160;&#160;</text>
<text text-anchor="start" x="437.37" y="-1235.87" font-family="Helvetica,sans-Serif" font-style="italic" font-size="32.00" fill="#29235c">float</text>
<polygon fill="#e7e2dd" stroke="transparent" points="115.83,-1154.67 115.83,-1214.67 508.83,-1214.67 508.83,-1154.67 115.83,-1154.67"/>
<polygon fill="none" stroke="#29235c" points="115.83,-1154.67 115.83,-1214.67 508.83,-1214.67 508.83,-1154.67 115.83,-1154.67"/>
<text text-anchor="start" x="126.83" y="-1174.87" font-family="Helvetica,sans-Serif" font-size="32.00" fill="#29235c">weight_kg &#160;&#160;&#160;</text>
<text text-anchor="start" x="437.37" y="-1175.87" font-family="Helvetica,sans-Serif" font-style="italic" font-size="32.00" fill="#29235c">float</text>
<polygon fill="#e7e2dd" stroke="transparent" points="115.83,-1094.67 115.83,-1154.67 508.83,-1154.67 508.83,-1094.67 115.83,-1094.67"/>
<polygon fill="none" stroke="#29235c" points="115.83,-1094.67 115.83,-1154.67 508.83,-1154.67 508.83,-1094.67 115.83,-1094.67"/>
<text text-anchor="start" x="126.83" y="-1114.87" font-family="Helvetica,sans-Serif" font-size="32.00" fill="#29235c">mood &#160;&#160;&#160;</text>
<text text-anchor="start" x="464.05" y="-1115.87" font-family="Helvetica,sans-Serif" font-style="italic" font-size="32.00" fill="#29235c">int</text>
<polygon fill="#e7e2dd" stroke="transparent" points="115.83,-1034.67 115.83,-1094.67 508.83,-1094.67 508.83,-1034.67 115.83,-1034.67"/>
<polygon fill="none" stroke="#29235c" points="115.83,-1034.67 115.83,-1094.67 508.83,-1094.67 508.83,-1034.67 115.83,-1034.67"/>
<text text-anchor="start" x="126.83" y="-1054.87" font-family="Helvetica,sans-Serif" font-size="32.00" fill="#29235c">stress &#160;&#160;&#160;</text>
<text text-anchor="start" x="464.05" y="-1055.87" font-family="Helvetica,sans-Serif" font-style="italic" font-size="32.00" fill="#29235c">int</text>
<polygon fill="#e7e2dd" stroke="transparent" points="115.83,-974.67 115.83,-1034.67 508.83,-1034.67 508.83,-974.67 115.83,-974.67"/>
<polygon fill="none" stroke="#29235c" points="115.83,-974.67 115.83,-1034.67 508.83,-1034.67 508.83,-974.67 115.83,-974.67"/>
<text text-anchor="start" x="126.83" y="-994.87" font-family="Helvetica,sans-Serif" font-size="32.00" fill="#29235c">symptoms &#160;&#160;&#160;</text>
<text text-anchor="start" x="428.47" y="-995.87" font-family="Helvetica,sans-Serif" font-style="italic" font-size="32.00" fill="#29235c">text[]</text>
<polygon fill="#e7e2dd" stroke="transparent" points="115.83,-914.67 115.83,-974.67 508.83,-974.67 508.83,-914.67 115.83,-914.67"/>
<polygon fill="none" stroke="#29235c" points="115.83,-914.67 115.83,-974.67 508.83,-974.67 508.83,-914.67 115.83,-914.67"/>
<text text-anchor="start" x="126.83" y="-934.87" font-family="Helvetica,sans-Serif" font-size="32.00" fill="#29235c">created_at &#160;&#160;&#160;</text>
<text text-anchor="start" x="325.38" y="-935.87" font-family="Helvetica,sans-Serif" font-style="italic" font-size="32.00" fill="#29235c">timestamptz</text>
<polygon fill="none" stroke="#29235c" stroke-width="2" points="114.33,-913.67 114.33,-1515.67 509.33,-1515.67 509.33,-913.67 114.33,-913.67"/>
</g>
<!-- daily_health_logs&#45;&gt;users -->
<!-- daily_health_logs&#45;&gt;users -->
<g id="edge6" class="edge">
<title>daily_health_logs:e&#45;&gt;users:w</title>
<path fill="none" stroke="#29235c" stroke-width="3" d="M509.83,-1424.67C622.3,-1424.67 580.76,-1546.71 623.67,-1650.67 685.82,-1801.25 578.51,-1998 729.85,-2006.39"/>
<polygon fill="#29235c" stroke="#29235c" stroke-width="3" points="730.11,-2009.9 740.2,-2006.67 730.29,-2002.9 730.11,-2009.9"/>
<text text-anchor="middle" x="731.3" y="-1977.87" font-family="Helvetica,sans-Serif" font-size="32.00" fill="#29235c">1</text>
<text text-anchor="middle" x="516.06" y="-1395.87" font-family="Helvetica,sans-Serif" font-size="32.00" fill="#29235c">*</text>
</g>
<!-- foods -->
<g id="foods" class="node">
<title>foods</title>
<ellipse fill="none" stroke="black" stroke-width="0" cx="311.83" cy="-3896.67" rx="240.33" ry="384.83"/>
<polygon fill="#1d71b8" stroke="transparent" points="143.83,-4106.67 143.83,-4166.67 479.83,-4166.67 479.83,-4106.67 143.83,-4106.67"/>
<polygon fill="none" stroke="#29235c" points="143.83,-4106.67 143.83,-4166.67 479.83,-4166.67 479.83,-4106.67 143.83,-4106.67"/>
<text text-anchor="start" x="210.45" y="-4127.87" font-family="Helvetica,sans-Serif" font-weight="bold" font-size="32.00" fill="#ffffff"> &#160;&#160;&#160;&#160;&#160;&#160;foods &#160;&#160;&#160;&#160;&#160;&#160;</text>
<polygon fill="#e7e2dd" stroke="transparent" points="143.83,-4046.67 143.83,-4106.67 479.83,-4106.67 479.83,-4046.67 143.83,-4046.67"/>
<polygon fill="none" stroke="#29235c" points="143.83,-4046.67 143.83,-4106.67 479.83,-4106.67 479.83,-4046.67 143.83,-4046.67"/>
<text text-anchor="start" x="154.83" y="-4067.87" font-family="Helvetica,sans-Serif" font-weight="bold" font-size="32.00" fill="#29235c">id</text>
<text text-anchor="start" x="179.72" y="-4067.87" font-family="Helvetica,sans-Serif" font-size="32.00" fill="#29235c"> &#160;&#160;&#160;</text>
<text text-anchor="start" x="408.37" y="-4067.87" font-family="Helvetica,sans-Serif" font-style="italic" font-size="32.00" fill="#29235c">uuid</text>
<polygon fill="#e7e2dd" stroke="transparent" points="143.83,-3986.67 143.83,-4046.67 479.83,-4046.67 479.83,-3986.67 143.83,-3986.67"/>
<polygon fill="none" stroke="#29235c" points="143.83,-3986.67 143.83,-4046.67 479.83,-4046.67 479.83,-3986.67 143.83,-3986.67"/>
<text text-anchor="start" x="154.83" y="-4006.87" font-family="Helvetica,sans-Serif" font-size="32.00" fill="#29235c">name &#160;&#160;&#160;</text>
<text text-anchor="start" x="417.26" y="-4007.87" font-family="Helvetica,sans-Serif" font-style="italic" font-size="32.00" fill="#29235c">text</text>
<polygon fill="#e7e2dd" stroke="transparent" points="143.83,-3926.67 143.83,-3986.67 479.83,-3986.67 479.83,-3926.67 143.83,-3926.67"/>
<polygon fill="none" stroke="#29235c" points="143.83,-3926.67 143.83,-3986.67 479.83,-3986.67 479.83,-3926.67 143.83,-3926.67"/>
<text text-anchor="start" x="154.83" y="-3946.87" font-family="Helvetica,sans-Serif" font-size="32.00" fill="#29235c">calories &#160;&#160;&#160;</text>
<text text-anchor="start" x="417.26" y="-3947.87" font-family="Helvetica,sans-Serif" font-style="italic" font-size="32.00" fill="#29235c">text</text>
<polygon fill="#e7e2dd" stroke="transparent" points="143.83,-3866.67 143.83,-3926.67 479.83,-3926.67 479.83,-3866.67 143.83,-3866.67"/>
<polygon fill="none" stroke="#29235c" points="143.83,-3866.67 143.83,-3926.67 479.83,-3926.67 479.83,-3866.67 143.83,-3866.67"/>
<text text-anchor="start" x="154.83" y="-3886.87" font-family="Helvetica,sans-Serif" font-size="32.00" fill="#29235c">protiens &#160;&#160;&#160;</text>
<text text-anchor="start" x="408.37" y="-3887.87" font-family="Helvetica,sans-Serif" font-style="italic" font-size="32.00" fill="#29235c">float</text>
<polygon fill="#e7e2dd" stroke="transparent" points="143.83,-3806.67 143.83,-3866.67 479.83,-3866.67 479.83,-3806.67 143.83,-3806.67"/>
<polygon fill="none" stroke="#29235c" points="143.83,-3806.67 143.83,-3866.67 479.83,-3866.67 479.83,-3806.67 143.83,-3806.67"/>
<text text-anchor="start" x="154.83" y="-3826.87" font-family="Helvetica,sans-Serif" font-size="32.00" fill="#29235c">carbs &#160;&#160;&#160;</text>
<text text-anchor="start" x="408.37" y="-3827.87" font-family="Helvetica,sans-Serif" font-style="italic" font-size="32.00" fill="#29235c">float</text>
<polygon fill="#e7e2dd" stroke="transparent" points="143.83,-3746.67 143.83,-3806.67 479.83,-3806.67 479.83,-3746.67 143.83,-3746.67"/>
<polygon fill="none" stroke="#29235c" points="143.83,-3746.67 143.83,-3806.67 479.83,-3806.67 479.83,-3746.67 143.83,-3746.67"/>
<text text-anchor="start" x="154.83" y="-3766.87" font-family="Helvetica,sans-Serif" font-size="32.00" fill="#29235c">fat &#160;&#160;&#160;</text>
<text text-anchor="start" x="408.37" y="-3767.87" font-family="Helvetica,sans-Serif" font-style="italic" font-size="32.00" fill="#29235c">float</text>
<polygon fill="#e7e2dd" stroke="transparent" points="143.83,-3686.67 143.83,-3746.67 479.83,-3746.67 479.83,-3686.67 143.83,-3686.67"/>
<polygon fill="none" stroke="#29235c" points="143.83,-3686.67 143.83,-3746.67 479.83,-3746.67 479.83,-3686.67 143.83,-3686.67"/>
<text text-anchor="start" x="154.7" y="-3706.87" font-family="Helvetica,sans-Serif" font-size="32.00" fill="#29235c">glycemic_index &#160;&#160;&#160;</text>
<text text-anchor="start" x="408.6" y="-3707.87" font-family="Helvetica,sans-Serif" font-style="italic" font-size="32.00" fill="#29235c">float</text>
<polygon fill="#e7e2dd" stroke="transparent" points="143.83,-3626.67 143.83,-3686.67 479.83,-3686.67 479.83,-3626.67 143.83,-3626.67"/>
<polygon fill="none" stroke="#29235c" points="143.83,-3626.67 143.83,-3686.67 479.83,-3686.67 479.83,-3626.67 143.83,-3626.67"/>
<text text-anchor="start" x="154.83" y="-3646.87" font-family="Helvetica,sans-Serif" font-size="32.00" fill="#29235c">tags &#160;&#160;&#160;</text>
<text text-anchor="start" x="399.47" y="-3647.87" font-family="Helvetica,sans-Serif" font-style="italic" font-size="32.00" fill="#29235c">text[]</text>
<polygon fill="none" stroke="#29235c" stroke-width="2" points="142.83,-3625.67 142.83,-4167.67 480.83,-4167.67 480.83,-3625.67 142.83,-3625.67"/>
</g>
<!-- recommendations -->
<g id="recommendations" class="node">
<title>recommendations</title>
<ellipse fill="none" stroke="black" stroke-width="0" cx="311.83" cy="-384.67" rx="311.67" ry="384.83"/>
<polygon fill="#1d71b8" stroke="transparent" points="93.83,-594.67 93.83,-654.67 530.83,-654.67 530.83,-594.67 93.83,-594.67"/>
<polygon fill="none" stroke="#29235c" points="93.83,-594.67 93.83,-654.67 530.83,-654.67 530.83,-594.67 93.83,-594.67"/>
<text text-anchor="start" x="122.95" y="-615.87" font-family="Helvetica,sans-Serif" font-weight="bold" font-size="32.00" fill="#ffffff"> &#160;&#160;&#160;&#160;&#160;&#160;recommendations &#160;&#160;&#160;&#160;&#160;&#160;</text>
<polygon fill="#e7e2dd" stroke="transparent" points="93.83,-534.67 93.83,-594.67 530.83,-594.67 530.83,-534.67 93.83,-534.67"/>
<polygon fill="none" stroke="#29235c" points="93.83,-534.67 93.83,-594.67 530.83,-594.67 530.83,-534.67 93.83,-534.67"/>
<text text-anchor="start" x="104.83" y="-555.87" font-family="Helvetica,sans-Serif" font-weight="bold" font-size="32.00" fill="#29235c">id</text>
<text text-anchor="start" x="129.72" y="-555.87" font-family="Helvetica,sans-Serif" font-size="32.00" fill="#29235c"> &#160;&#160;&#160;</text>
<text text-anchor="start" x="459.37" y="-555.87" font-family="Helvetica,sans-Serif" font-style="italic" font-size="32.00" fill="#29235c">uuid</text>
<polygon fill="#e7e2dd" stroke="transparent" points="93.83,-474.67 93.83,-534.67 530.83,-534.67 530.83,-474.67 93.83,-474.67"/>
<polygon fill="none" stroke="#29235c" points="93.83,-474.67 93.83,-534.67 530.83,-534.67 530.83,-474.67 93.83,-474.67"/>
<text text-anchor="start" x="104.83" y="-494.87" font-family="Helvetica,sans-Serif" font-size="32.00" fill="#29235c">user_id &#160;&#160;&#160;</text>
<text text-anchor="start" x="459.37" y="-495.87" font-family="Helvetica,sans-Serif" font-style="italic" font-size="32.00" fill="#29235c">uuid</text>
<polygon fill="#e7e2dd" stroke="transparent" points="93.83,-414.67 93.83,-474.67 530.83,-474.67 530.83,-414.67 93.83,-414.67"/>
<polygon fill="none" stroke="#29235c" points="93.83,-414.67 93.83,-474.67 530.83,-474.67 530.83,-414.67 93.83,-414.67"/>
<text text-anchor="start" x="104.39" y="-434.87" font-family="Helvetica,sans-Serif" font-size="32.00" fill="#29235c">recommendation_date &#160;&#160;&#160;</text>
<text text-anchor="start" x="457.7" y="-435.87" font-family="Helvetica,sans-Serif" font-style="italic" font-size="32.00" fill="#29235c">date</text>
<polygon fill="#e7e2dd" stroke="transparent" points="93.83,-354.67 93.83,-414.67 530.83,-414.67 530.83,-354.67 93.83,-354.67"/>
<polygon fill="none" stroke="#29235c" points="93.83,-354.67 93.83,-414.67 530.83,-414.67 530.83,-354.67 93.83,-354.67"/>
<text text-anchor="start" x="104.83" y="-374.87" font-family="Helvetica,sans-Serif" font-size="32.00" fill="#29235c">recommended_foods &#160;&#160;&#160;</text>
<text text-anchor="start" x="441.71" y="-375.87" font-family="Helvetica,sans-Serif" font-style="italic" font-size="32.00" fill="#29235c">uuid[]</text>
<polygon fill="#e7e2dd" stroke="transparent" points="93.83,-294.67 93.83,-354.67 530.83,-354.67 530.83,-294.67 93.83,-294.67"/>
<polygon fill="none" stroke="#29235c" points="93.83,-294.67 93.83,-354.67 530.83,-354.67 530.83,-294.67 93.83,-294.67"/>
<text text-anchor="start" x="104.83" y="-314.87" font-family="Helvetica,sans-Serif" font-size="32.00" fill="#29235c">avoided_foods &#160;&#160;&#160;</text>
<text text-anchor="start" x="441.58" y="-315.87" font-family="Helvetica,sans-Serif" font-style="italic" font-size="32.00" fill="#29235c">uuid[]</text>
<polygon fill="#e7e2dd" stroke="transparent" points="93.83,-234.67 93.83,-294.67 530.83,-294.67 530.83,-234.67 93.83,-234.67"/>
<polygon fill="none" stroke="#29235c" points="93.83,-234.67 93.83,-294.67 530.83,-294.67 530.83,-234.67 93.83,-234.67"/>
<text text-anchor="start" x="104.83" y="-254.87" font-family="Helvetica,sans-Serif" font-size="32.00" fill="#29235c">explanation &#160;&#160;&#160;</text>
<text text-anchor="start" x="443.37" y="-255.87" font-family="Helvetica,sans-Serif" font-style="italic" font-size="32.00" fill="#29235c">jsonb</text>
<polygon fill="#e7e2dd" stroke="transparent" points="93.83,-174.67 93.83,-234.67 530.83,-234.67 530.83,-174.67 93.83,-174.67"/>
<polygon fill="none" stroke="#29235c" points="93.83,-174.67 93.83,-234.67 530.83,-234.67 530.83,-174.67 93.83,-174.67"/>
<text text-anchor="start" x="104.83" y="-194.87" font-family="Helvetica,sans-Serif" font-size="32.00" fill="#29235c">confidence_score &#160;&#160;&#160;</text>
<text text-anchor="start" x="459.37" y="-195.87" font-family="Helvetica,sans-Serif" font-style="italic" font-size="32.00" fill="#29235c">float</text>
<polygon fill="#e7e2dd" stroke="transparent" points="93.83,-114.67 93.83,-174.67 530.83,-174.67 530.83,-114.67 93.83,-114.67"/>
<polygon fill="none" stroke="#29235c" points="93.83,-114.67 93.83,-174.67 530.83,-174.67 530.83,-114.67 93.83,-114.67"/>
<text text-anchor="start" x="104.83" y="-134.87" font-family="Helvetica,sans-Serif" font-size="32.00" fill="#29235c">created_at &#160;&#160;&#160;</text>
<text text-anchor="start" x="347.38" y="-135.87" font-family="Helvetica,sans-Serif" font-style="italic" font-size="32.00" fill="#29235c">timestamptz</text>
<polygon fill="none" stroke="#29235c" stroke-width="2" points="92.33,-113.67 92.33,-655.67 531.33,-655.67 531.33,-113.67 92.33,-113.67"/>
</g>
<!-- recommendations&#45;&gt;users -->
<!-- recommendations&#45;&gt;users -->
<g id="edge8" class="edge">
<title>recommendations:e&#45;&gt;users:w</title>
<path fill="none" stroke="#29235c" stroke-width="3" d="M531.83,-504.67C660.27,-504.67 597.02,-653.03 623.67,-778.67 651.38,-909.34 605.58,-1951.73 730.11,-2004.58"/>
<polygon fill="#29235c" stroke="#29235c" stroke-width="3" points="729.7,-2008.07 740.2,-2006.67 731.11,-2001.22 729.7,-2008.07"/>
<text text-anchor="middle" x="749.09" y="-1977.87" font-family="Helvetica,sans-Serif" font-size="32.00" fill="#29235c">1</text>
<text text-anchor="middle" x="538.06" y="-475.87" font-family="Helvetica,sans-Serif" font-size="32.00" fill="#29235c">*</text>
</g>
<!-- alerts -->
<g id="alerts" class="node">
<title>alerts</title>
<ellipse fill="none" stroke="black" stroke-width="0" cx="311.83" cy="-3194.67" rx="271.56" ry="299.63"/>
<polygon fill="#1d71b8" stroke="transparent" points="121.83,-3344.67 121.83,-3404.67 501.83,-3404.67 501.83,-3344.67 121.83,-3344.67"/>
<polygon fill="none" stroke="#29235c" points="121.83,-3344.67 121.83,-3404.67 501.83,-3404.67 501.83,-3344.67 121.83,-3344.67"/>
<text text-anchor="start" x="210.47" y="-3365.87" font-family="Helvetica,sans-Serif" font-weight="bold" font-size="32.00" fill="#ffffff"> &#160;&#160;&#160;&#160;&#160;&#160;alerts &#160;&#160;&#160;&#160;&#160;&#160;</text>
<polygon fill="#e7e2dd" stroke="transparent" points="121.83,-3284.67 121.83,-3344.67 501.83,-3344.67 501.83,-3284.67 121.83,-3284.67"/>
<polygon fill="none" stroke="#29235c" points="121.83,-3284.67 121.83,-3344.67 501.83,-3344.67 501.83,-3284.67 121.83,-3284.67"/>
<text text-anchor="start" x="132.83" y="-3305.87" font-family="Helvetica,sans-Serif" font-weight="bold" font-size="32.00" fill="#29235c">id</text>
<text text-anchor="start" x="157.72" y="-3305.87" font-family="Helvetica,sans-Serif" font-size="32.00" fill="#29235c"> &#160;&#160;&#160;</text>
<text text-anchor="start" x="430.37" y="-3305.87" font-family="Helvetica,sans-Serif" font-style="italic" font-size="32.00" fill="#29235c">uuid</text>
<polygon fill="#e7e2dd" stroke="transparent" points="121.83,-3224.67 121.83,-3284.67 501.83,-3284.67 501.83,-3224.67 121.83,-3224.67"/>
<polygon fill="none" stroke="#29235c" points="121.83,-3224.67 121.83,-3284.67 501.83,-3284.67 501.83,-3224.67 121.83,-3224.67"/>
<text text-anchor="start" x="132.83" y="-3244.87" font-family="Helvetica,sans-Serif" font-size="32.00" fill="#29235c">user_id &#160;&#160;&#160;</text>
<text text-anchor="start" x="430.37" y="-3245.87" font-family="Helvetica,sans-Serif" font-style="italic" font-size="32.00" fill="#29235c">uuid</text>
<polygon fill="#e7e2dd" stroke="transparent" points="121.83,-3164.67 121.83,-3224.67 501.83,-3224.67 501.83,-3164.67 121.83,-3164.67"/>
<polygon fill="none" stroke="#29235c" points="121.83,-3164.67 121.83,-3224.67 501.83,-3224.67 501.83,-3164.67 121.83,-3164.67"/>
<text text-anchor="start" x="132.83" y="-3184.87" font-family="Helvetica,sans-Serif" font-size="32.00" fill="#29235c">alert_type &#160;&#160;&#160;</text>
<text text-anchor="start" x="439.26" y="-3185.87" font-family="Helvetica,sans-Serif" font-style="italic" font-size="32.00" fill="#29235c">text</text>
<polygon fill="#e7e2dd" stroke="transparent" points="121.83,-3104.67 121.83,-3164.67 501.83,-3164.67 501.83,-3104.67 121.83,-3104.67"/>
<polygon fill="none" stroke="#29235c" points="121.83,-3104.67 121.83,-3164.67 501.83,-3164.67 501.83,-3104.67 121.83,-3104.67"/>
<text text-anchor="start" x="132.83" y="-3124.87" font-family="Helvetica,sans-Serif" font-size="32.00" fill="#29235c">message &#160;&#160;&#160;</text>
<text text-anchor="start" x="439.26" y="-3125.87" font-family="Helvetica,sans-Serif" font-style="italic" font-size="32.00" fill="#29235c">text</text>
<polygon fill="#e7e2dd" stroke="transparent" points="121.83,-3044.67 121.83,-3104.67 501.83,-3104.67 501.83,-3044.67 121.83,-3044.67"/>
<polygon fill="none" stroke="#29235c" points="121.83,-3044.67 121.83,-3104.67 501.83,-3104.67 501.83,-3044.67 121.83,-3044.67"/>
<text text-anchor="start" x="132.83" y="-3064.87" font-family="Helvetica,sans-Serif" font-size="32.00" fill="#29235c">severity &#160;&#160;&#160;</text>
<text text-anchor="start" x="439.26" y="-3065.87" font-family="Helvetica,sans-Serif" font-style="italic" font-size="32.00" fill="#29235c">text</text>
<polygon fill="#e7e2dd" stroke="transparent" points="121.83,-2984.67 121.83,-3044.67 501.83,-3044.67 501.83,-2984.67 121.83,-2984.67"/>
<polygon fill="none" stroke="#29235c" points="121.83,-2984.67 121.83,-3044.67 501.83,-3044.67 501.83,-2984.67 121.83,-2984.67"/>
<text text-anchor="start" x="132.46" y="-3004.87" font-family="Helvetica,sans-Serif" font-size="32.00" fill="#29235c">created_at &#160;&#160;&#160;</text>
<text text-anchor="start" x="318.61" y="-3005.87" font-family="Helvetica,sans-Serif" font-style="italic" font-size="32.00" fill="#29235c">timestamptz</text>
<polygon fill="none" stroke="#29235c" stroke-width="2" points="120.83,-2983.67 120.83,-3405.67 502.83,-3405.67 502.83,-2983.67 120.83,-2983.67"/>
</g>
<!-- alerts&#45;&gt;users -->
<!-- alerts&#45;&gt;users -->
<g id="edge10" class="edge">
<title>alerts:e&#45;&gt;users:w</title>
<path fill="none" stroke="#29235c" stroke-width="3" d="M502.83,-3254.67C675.4,-3254.67 585.31,-3053.92 623.67,-2885.67 666.69,-2696.93 547.47,-2030.66 730.1,-2007.3"/>
<polygon fill="#29235c" stroke="#29235c" stroke-width="3" points="730.43,-2010.78 740.2,-2006.67 730,-2003.8 730.43,-2010.78"/>
<text text-anchor="middle" x="731.3" y="-2016.27" font-family="Helvetica,sans-Serif" font-size="32.00" fill="#29235c">1</text>
<text text-anchor="middle" x="509.06" y="-3264.27" font-family="Helvetica,sans-Serif" font-size="32.00" fill="#29235c">*</text>
</g>
<!-- admin_logs -->
<g id="admin_logs" class="node">
<title>admin_logs</title>
<ellipse fill="none" stroke="black" stroke-width="0" cx="311.83" cy="-4514.67" rx="271.56" ry="214.92"/>
<polygon fill="#1d71b8" stroke="transparent" points="121.83,-4604.67 121.83,-4664.67 501.83,-4664.67 501.83,-4604.67 121.83,-4604.67"/>
<polygon fill="none" stroke="#29235c" points="121.83,-4604.67 121.83,-4664.67 501.83,-4664.67 501.83,-4604.67 121.83,-4604.67"/>
<text text-anchor="start" x="167.79" y="-4625.87" font-family="Helvetica,sans-Serif" font-weight="bold" font-size="32.00" fill="#ffffff"> &#160;&#160;&#160;&#160;&#160;&#160;admin_logs &#160;&#160;&#160;&#160;&#160;&#160;</text>
<polygon fill="#e7e2dd" stroke="transparent" points="121.83,-4544.67 121.83,-4604.67 501.83,-4604.67 501.83,-4544.67 121.83,-4544.67"/>
<polygon fill="none" stroke="#29235c" points="121.83,-4544.67 121.83,-4604.67 501.83,-4604.67 501.83,-4544.67 121.83,-4544.67"/>
<text text-anchor="start" x="132.83" y="-4565.87" font-family="Helvetica,sans-Serif" font-weight="bold" font-size="32.00" fill="#29235c">id</text>
<text text-anchor="start" x="157.72" y="-4565.87" font-family="Helvetica,sans-Serif" font-size="32.00" fill="#29235c"> &#160;&#160;&#160;</text>
<text text-anchor="start" x="430.37" y="-4565.87" font-family="Helvetica,sans-Serif" font-style="italic" font-size="32.00" fill="#29235c">uuid</text>
<polygon fill="#e7e2dd" stroke="transparent" points="121.83,-4484.67 121.83,-4544.67 501.83,-4544.67 501.83,-4484.67 121.83,-4484.67"/>
<polygon fill="none" stroke="#29235c" points="121.83,-4484.67 121.83,-4544.67 501.83,-4544.67 501.83,-4484.67 121.83,-4484.67"/>
<text text-anchor="start" x="132.83" y="-4504.87" font-family="Helvetica,sans-Serif" font-size="32.00" fill="#29235c">action &#160;&#160;&#160;</text>
<text text-anchor="start" x="439.26" y="-4505.87" font-family="Helvetica,sans-Serif" font-style="italic" font-size="32.00" fill="#29235c">text</text>
<polygon fill="#e7e2dd" stroke="transparent" points="121.83,-4424.67 121.83,-4484.67 501.83,-4484.67 501.83,-4424.67 121.83,-4424.67"/>
<polygon fill="none" stroke="#29235c" points="121.83,-4424.67 121.83,-4484.67 501.83,-4484.67 501.83,-4424.67 121.83,-4424.67"/>
<text text-anchor="start" x="132.83" y="-4444.87" font-family="Helvetica,sans-Serif" font-size="32.00" fill="#29235c">metadata &#160;&#160;&#160;</text>
<text text-anchor="start" x="414.37" y="-4445.87" font-family="Helvetica,sans-Serif" font-style="italic" font-size="32.00" fill="#29235c">jsonb</text>
<polygon fill="#e7e2dd" stroke="transparent" points="121.83,-4364.67 121.83,-4424.67 501.83,-4424.67 501.83,-4364.67 121.83,-4364.67"/>
<polygon fill="none" stroke="#29235c" points="121.83,-4364.67 121.83,-4424.67 501.83,-4424.67 501.83,-4364.67 121.83,-4364.67"/>
<text text-anchor="start" x="132.46" y="-4384.87" font-family="Helvetica,sans-Serif" font-size="32.00" fill="#29235c">created_at &#160;&#160;&#160;</text>
<text text-anchor="start" x="318.61" y="-4385.87" font-family="Helvetica,sans-Serif" font-style="italic" font-size="32.00" fill="#29235c">timestamptz</text>
<polygon fill="none" stroke="#29235c" stroke-width="2" points="120.83,-4363.67 120.83,-4665.67 502.83,-4665.67 502.83,-4363.67 120.83,-4363.67"/>
</g>
</g>
</svg>
